<svg xmlns="http://www.w3.org/2000/svg" viewBox="0 0 337 311" fill="currentColor" role="img" aria-label="Ламакорд"><path fill-rule="evenodd" d="M97 0 L237 0 L243 3 L247 11 L247 33 L88 33 L88 8 L91 3 L96 1 ZM70 52 L160 52 L18 84 L16 84 L18 64 L69 53 ZM252 52 L273 52 L308 61 L309 62 L301 64 L15 127 L13 127 L15 105 L251 53 ZM315 81 L319 81 L321 101 L299 107 L10 170 L11 148 L314 82 ZM320 122 L322 122 L323 143 L318 145 L9 213 L6 213 L7 192 L319 123 ZM322 164 L325 164 L326 168 L326 186 L5 256 L3 256 L5 234 L321 165 ZM327 205 L330 226 L304 233 L3 299 L0 299 L1 277 L326 206 ZM331 247 L332 269 L296 277 L144 310 L43 310 L330 248 ZM333 288 L335 295 L335 310 L235 310 L332 289 Z"/></svg>