<svg xmlns="http://www.w3.org/2000/svg" viewBox="0 0 543 460" fill="currentColor" role="img" aria-label="Ламакорд"><path fill-rule="evenodd" d="M200 0 L340 0 L346 3 L350 11 L350 33 L191 33 L191 8 L194 3 L199 1 ZM173 52 L263 52 L121 84 L119 84 L121 64 L172 53 ZM355 52 L376 52 L411 61 L412 62 L404 64 L118 127 L116 127 L118 105 L354 53 ZM418 81 L422 81 L424 101 L402 107 L113 170 L114 148 L417 82 ZM423 122 L425 122 L426 143 L421 145 L112 213 L109 213 L110 192 L422 123 ZM425 164 L428 164 L429 168 L429 186 L108 256 L106 256 L108 234 L424 165 ZM430 205 L433 226 L407 233 L106 299 L103 299 L104 277 L429 206 ZM434 247 L435 269 L399 277 L247 310 L146 310 L433 248 ZM436 288 L438 295 L438 310 L338 310 L435 289 ZM367 359 L388 360 L399 367 L403 381 L400 399 L392 406 L386 408 L365 408 L353 402 L348 390 L349 373 L356 363 L366 360 ZM433 359 L455 359 L465 363 L469 370 L469 385 L467 389 L457 395 L435 395 L434 407 L422 407 L422 360 L432 360 ZM11 360 L53 361 L53 406 L41 407 L41 372 L22 371 L21 391 L18 403 L10 408 L0 407 L0 397 L6 397 L9 393 L10 361 ZM91 360 L103 361 L124 406 L113 407 L108 398 L85 398 L80 407 L69 407 L90 361 ZM140 360 L152 360 L169 384 L186 360 L198 361 L198 407 L186 407 L185 380 L172 397 L166 397 L153 380 L152 407 L140 407 L140 361 ZM236 360 L249 361 L269 403 L269 407 L258 407 L254 398 L231 398 L226 407 L215 407 L236 361 ZM286 360 L298 361 L299 379 L306 379 L321 361 L334 361 L317 383 L333 403 L334 407 L322 407 L306 389 L298 390 L298 407 L286 407 L286 361 ZM493 360 L535 360 L535 395 L537 397 L542 397 L542 415 L532 420 L531 407 L494 407 L493 415 L483 420 L483 397 L487 397 L490 394 L492 361 ZM176 453 L364 454 L363 459 L177 459 L175 457 L176 454 ZM368 371 L382 371 L389 376 L390 386 L388 393 L381 397 L370 397 L365 395 L361 389 L361 379 L363 374 L367 372 ZM435 371 L453 371 L456 373 L456 381 L447 384 L435 383 L435 372 ZM504 372 L522 372 L522 396 L502 395 L504 373 ZM96 373 L102 385 L102 387 L90 387 L96 374 ZM242 373 L248 385 L248 387 L236 387 L242 374 Z"/></svg>